<svg 
  xmlns="http://www.w3.org/2000/svg" 
  width="32" 
  height="32" 
  viewBox="0 0 24 24" 
  fill="none" 
  stroke="#E0C040" 
  stroke-width="2" 
  stroke-linecap="round" 
  stroke-linejoin="round"
>
  <path d="M10 3H4a1 1 0 0 0-1 1v6a1 1 0 0 0 1 1h6a1 1 0 0 0 1-1V4a1 1 0 0 0-1-1z"></path>
  <path d="M10 13H4a1 1 0 0 0-1 1v6a1 1 0 0 0 1 1h6a1 1 0 0 0 1-1v-6a1 1 0 0 0-1-1z"></path>
  <path d="M20 3h-6a1 1 0 0 0-1 1v6a1 1 0 0 0 1 1h6a1 1 0 0 0 1-1V4a1 1 0 0 0-1-1z"></path>
  <path d="M17 13h-3v3m0-3v-3m0 3h3m-3 0h-3"></path>
</svg>